<?xml version="1.0" encoding="utf-8"?>
<!-- Generator: Adobe Illustrator 22.0.0, SVG Export Plug-In . SVG Version: 6.00 Build 0)  -->
<svg version="1.1" id="Calque_1" xmlns="http://www.w3.org/2000/svg" xmlns:xlink="http://www.w3.org/1999/xlink" x="0px" y="0px"
	 viewBox="0 0 432 432" style="enable-background:new 0 0 432 432;" xml:space="preserve">
<style type="text/css">
	.st0{fill:#07672F;}
	.st1{fill:#F2F2F2;}
	.st2{fill:#544842;}
	.st3{fill:#C69C6C;}
	.st4{fill:#020203;}
	.st5{fill:#F39323;}
	.st6{fill:#05AB9E;}
	.st7{fill:#0D71B9;}
	.st8{fill:#354294;}
	.st9{fill:#28285B;}
	.st10{fill:#CDCCCC;}
	.st11{fill:#C1292E;}
	.st12{fill:#412413;}
	.st13{fill:#9E1460;}
	.st14{fill:#FFFFFF;}
	.st15{fill:#BB8C3E;}
	.st16{fill:#E7E6E6;}
	.st17{fill:#066938;}
	.st18{fill:#A3282E;}
	.st19{fill:#20457C;}
	.st20{fill:#1D3259;}
	.st21{fill:#EAA35C;}
	.st22{fill:#009245;}
	.st23{fill:#BE1622;}
	.st24{fill:#B092C2;}
	.st25{fill:#9E79B4;}
	.st26{fill:#BA9BC9;}
	.st27{fill:#00A19A;}
	.st28{fill:#575756;}
	.st29{fill:#634E42;}
	.st30{fill:#828BC5;}
	.st31{fill:#A3195B;}
	.st32{fill:#014837;}
	.st33{fill:#C67B3E;}
	.st34{fill:#921D25;}
	.st35{fill:#1A405B;}
	.st36{fill:#6BC4CD;}
	.st37{fill:#DADADA;}
</style>
<g>
	<g>
		<g>
			<path class="st10" d="M241.6,363.3c-4.6,0-54.9,0-61.2,0c-2.7,0-3.7,3.9,0,3.9c1.6,0,56.4,0,61,0S246.2,363.3,241.6,363.3z"/>
			<path class="st10" d="M280.4,284.2v-8.6H142.2c-1.5,13.7-0.8,25.8,4.4,40.6c7.5,21.3,32.4,39.6,34.4,41.6
				c2.4,2.3,57.1,3.3,59.3,0.7c2.2-2.5,11.5-10.6,18.5-19.6c36.6-7.9,49.3-23.8,49.8-37.9C309.2,287,299.3,280.7,280.4,284.2z
				 M269.5,322.5c6-10.1,8.1-20.5,8.8-24c10.4-4.2,16.8-3.8,16.8,5.7S282.8,323,269.5,322.5z"/>
		</g>
		<g>
			<path class="st11" d="M98.3,251.4c0.4-0.8,0.7-1.5,1-2.1c2.1-4.2,6.5-5.7,10.8-3.7c2.1,1,3.9,2.5,5.4,4.3
				c3.4,4.3,5.6,9.2,6.1,14.8c0.6,7.8-0.9,15.3-3.9,22.5c-2,4.7-4.5,9.1-7.1,13.4c-1.1,1.8-2,3.6-2.4,5.7c-0.1,0.6-0.4,1.1-1.1,1.1
				c-0.8,0-1.2-0.6-1.2-1.2c0-1,0.1-2,0.3-3c0.2-0.9,0.6-1.8,1-2.7c3.2-7.1,6.1-14.3,8.3-21.8c1.1-3.6,1-7.2,0.8-10.8
				c-0.1-1.6-0.3-3.2-0.7-4.8c-0.4-1.8-0.9-3.7-1.6-5.3c-1.1-2.4-2.9-4.1-5.3-5.2c-1.8-0.8-3.7-0.1-4.3,1.8
				c-0.4,1.4-0.6,2.9-0.6,4.3c0,1.3,0.3,2.6,0.5,3.9c0.3,1.4-0.2,2.4-1.4,2.8c-1.2,0.4-2.3-0.2-2.9-1.5c-0.9-1.8-1.8-3.6-2.7-5.4
				c-1.4-2.7-3.3-5.1-5.3-7.3c-1.2-1.3-2.6-2.4-4.3-3c-1.3-0.4-2.4-0.1-3.2,1c-0.5,0.7-0.9,1.5-1.1,2.3c-0.7,2.7-0.4,5.3,0.7,7.9
				c1.9,4.5,4.5,8.5,8.3,11.6c2.1,1.8,4.3,3.5,6.5,5.3c0.6,0.5,1.2,1,1.8,1.4c4.6,3.6,6.8,8.4,7.3,14.1c0.1,1,0.1,2,0,3
				c-0.2,1.1-0.9,1.6-1.8,1.5c-0.8,0-1.4-0.5-1.7-1.5c-0.1-0.4-0.2-0.8-0.2-1.2c-0.2-3.8-2-6.9-4.8-9.3c-1.9-1.6-3.9-3-6-4.4
				c-4.4-3-8.5-6.4-12.4-10c-3.3-3.1-5.5-6.9-6.1-11.4c-0.6-4.3,0.5-8.4,2.7-12.1c1.3-2.3,3.6-3.2,6.2-3.3c3.6-0.1,6.9,0.9,9.7,3.3
				c1.4,1.2,2.6,2.6,3.8,3.9C97.5,250.5,97.9,250.9,98.3,251.4z"/>
			<path class="st11" d="M110.8,319.6c0.2-2.8,0.7-5.5,1.7-8c1.1-3,2.3-6,3.6-9c1.2-2.9,2.5-5.9,3-9c0.1-0.7,0.5-1.1,1.2-1.2
				c0.7-0.1,1.3,0.2,1.6,0.9c0.2,0.5,0.4,1.2,0.3,1.7c-0.2,1.3-0.3,2.6-0.8,3.8c-0.8,2.1-1.7,4.2-2.6,6.3c-1,2.4-2,4.7-3,7.1
				c-0.9,2.1-1.4,4.3-1.6,6.6c-0.3,3.4,0.3,6.5,2.3,9.4c0.4,0.6,1,1.1,1.5,1.6c0.4,0.4,0.9,0.7,0.5,1.2c-0.2,0.3-0.9,0.6-1.3,0.5
				c-0.7-0.2-1.4-0.6-2-1c-1.8-1.5-3-3.4-3.6-5.7C111.3,323.1,111.1,321.3,110.8,319.6z"/>
		</g>
	</g>
	<g>
		<g>
			<g>
				<path class="st12" d="M242.6,224.7c-1.3,7.6-2.6,15.1-3.9,22.5c3.2,2.4,6.6,3,10.3,2.3c3-0.6,5.8-1.8,8.3-3.6
					c3.3-2.3,3.2-2.3,4.3-6.2c2.2-7.7,4.5-15.4,6.8-23.1c1.2-3.9,3.2-7.4,5.8-10.6c1.6-2,3.5-3.7,5.8-4.8c2-1,4-1,6,0.1
					c2.2,1.2,2.9,3.1,2.8,5.5c-0.2,3.8-1.4,7.3-3.5,10.5c-2.3,3.5-5.5,5.6-9.6,6.4c-0.2,0-0.4,0.1-0.8,0.2c-1.1,7-2.1,14.1-3.2,21.3
					c0.3,0.1,0.6,0.3,1,0.4c5,1.3,9.6,0.3,13.9-2.5c0.6-0.4,0.7-0.9,0.8-1.5c0.9-4.4,2.1-8.6,3.7-12.8c1.5-3.8,3.4-7.4,6.2-10.5
					c2.2-2.5,4.9-4.3,8.2-4.7c1.4-0.2,2.9-0.2,4.2,0.1c4.7,1,7.4,5.2,6.7,10c-0.6,3.7-2.4,6.6-5.7,8.5c-3,1.8-6.2,2.9-9.8,2.3
					c-0.1,0-0.3,0-0.6,0.1c-0.3,1.7-0.7,3.4-0.9,5.2c-0.6,4.7-0.4,9.4,0.7,14c0.4,1.9,1.4,3.6,2.6,5.1c1.3,1.6,3,2,4.9,1.2
					c3.1-1.3,5.9-3.3,8.5-5.5c1.2-1,1.9-2,1.9-3.6c0.1-5.9,1.9-11.5,3.7-17.1c1.3-4,2.9-7.9,5-11.5c1.6-2.7,3.4-5.3,5.8-7.3
					c2.1-1.7,4.4-3,7.2-3.4c1.9-0.3,3.7-0.2,5.5,0.7c2.4,1.3,3.3,3.3,3.2,5.9c-0.1,2.2-0.7,4.2-1.7,6.1c-2.7,5.1-7.1,8-12.7,9.3
					c-0.3,0.1-0.7,0.1-1.2,0.2c-0.3,1.4-0.6,2.9-0.8,4.4c-0.6,4.2-0.9,8.5-0.6,12.7c0.1,1.7,0.5,3.4,0.8,5.1
					c0.4,1.9,1.5,3.5,2.9,4.7c1.8,1.5,4.1,2.1,6.4,1.1c2.6-1.1,4.9-2.6,7-4.5c4.8-4.2,9.1-8.8,13.1-13.7c0.5-0.6,1.1-1.2,1.6-1.8
					c0.4-0.4,0.9-0.7,1.5-0.3c0.6,0.4,0.5,1,0.3,1.5c-0.3,0.7-0.7,1.5-1.2,2.1c-4.7,6.2-9.7,12-15.6,17.2c-2.6,2.2-5.3,4.2-8.5,5.5
					c-2.7,1.2-5.5,1.6-8.4,1.3c-1.7-0.2-3.3-0.5-4.9-0.9c-4.3-1.3-7-4.3-7.9-8.7c-0.1-0.5-0.2-1-0.4-1.7c-1.3,1.3-2.5,2.4-3.7,3.6
					c-2.3,2.3-4.8,4.3-7.9,5.5c-3.4,1.3-6.9,1.5-10.4,0.6c-5.3-1.3-8.4-4.8-9.4-10.1c-0.6-2.9-0.4-5.8-0.2-8.8
					c0.1-0.5,0.1-1.1,0.2-1.8c-3.7,2-7.4,2.7-11.5,2.2c0.3,0.4,0.4,0.6,0.6,0.8c3.1,2.9,4.8,6.5,5.7,10.6c1.6,6.8,1.1,13.6-0.2,20.3
					c-0.7,3.7-1.3,7.4-2.9,10.8c-0.8,1.6-1.6,3.3-2.5,4.9c-1.2,2.1-2.9,3.6-4.9,4.8c-2.6,1.5-5.2,1.7-8,0.5
					c-4.1-1.9-6.4-5.1-7.1-9.4c-0.3-1.8-0.4-3.6-0.2-5.4c0.4-6.1,0.8-12.2,1.4-18.3c0.6-5.5,1.5-11,2.3-16.5
					c0.2-1.3,0.4-2.7,0.5-4.1c-4,3-8.3,4.8-13.5,4.9c0.3,0.5,0.4,0.8,0.6,1c4.2,6.8,5.8,14.2,5.1,22.2c-0.3,3.7-1.1,7.3-2.3,10.8
					c-1.6,4.7-4.3,8.5-8.4,11.4c-2.7,1.9-5.6,2.8-8.9,2c-4.2-1.1-6.7-3.9-7.6-8c-0.8-3.3-0.6-6.7-0.5-10.1c0.1-5,1-10,1.7-14.9
					c0.8-5.4,1.5-10.8,2.3-16.2c0.8-6,2.3-11.9,3.7-17.8c0.4-1.7,0.8-3.4,1.2-5.4c-1.3,0.6-2.3,1.2-3.4,1.6
					c-1.1,0.4-2.2,0.8-3.3,1.2c-0.1,1.9-0.2,3.7-0.4,5.6c-0.5,7-2.8,13.3-6.8,19.1c-3.4,4.9-7.9,8-13.9,8.9
					c-2.3,0.3-4.5,0.2-6.7-0.6c-3.7-1.2-5.8-4-7.2-7.5c-0.3-0.7-0.6-1.5-0.9-2.4c-0.6,0.5-1,0.8-1.5,1.2c-3.7,3.1-7.5,6.1-11.9,8
					c-3.6,1.6-7.4,2.5-11.3,2.4c-2-0.1-3.9-0.5-5.7-1.4c-3.5-1.8-5.4-4.7-6-8.6c-0.5-3.2-0.3-6.4,0.4-9.5
					c1.9-9.2,5.2-17.9,10.4-25.7c1.6-2.4,3.3-4.6,5.5-6.4c2.4-2,5.1-3.2,8.3-3.4c3.3-0.2,6.3,0.9,8.7,3.2c2.5,2.4,3.4,5.3,2.3,8.7
					c-0.1,0.3-0.2,0.6-0.4,0.8c-0.3,0.5-0.7,0.9-1.4,0.6c-0.6-0.2-0.6-0.7-0.5-1.3c0.1-0.4,0.2-0.8,0.3-1.2c0.6-3.1-1.2-6.4-4.1-7.2
					c-1.4-0.4-2.8-0.3-4,0.6c-1.9,1.4-3.6,3-4.9,4.9c-2.2,3.2-3.9,6.7-5.2,10.4c-1.7,4.9-3.2,9.8-3.7,15c-0.2,2.5-0.4,5,0.1,7.6
					c1,5,5.5,7.4,9.9,6.1c0.6-0.2,1.2-0.3,1.7-0.6c4-1.8,7.9-3.9,11.6-6.3c0.2-0.2,0.5-0.4,0.7-0.6c-0.8-7.8,0.7-15.1,3.5-22.3
					c1.9-4.9,4.7-9.3,8.9-12.6c2.2-1.8,4.7-3.2,7.5-3.7c4-0.7,7.7,0.3,10.8,2.9c2,1.7,3.3,4,4,6.5c0.6,1.8,1,3.7,1.5,5.6
					c0.3,0,0.7-0.1,1-0.2c2.4-0.8,4.6-2,6.6-3.6c0.7-0.5,1-1.2,1.3-2c1-3,1.9-6,3.1-8.9c1.3-3.1,3.1-5.9,5.5-8.3
					c0.7-0.7,1.5-1.4,2.3-1.9c4.1-2.7,9-1,10.4,3.8c1.3,4.5,0.2,8.6-2.8,12.2C250.6,221.3,247.1,223.6,242.6,224.7z M206.7,219.9
					c-0.5,0.6-0.8,0.9-1.1,1.3c-1.7,2.4-2.8,5-3.4,7.9c-1,4.4-1.5,8.9-1.2,13.4c0.2,4.2,1.3,8.3,3.2,12.1c0.4,0.8,0.9,1.6,1.5,2.3
					c1,1.1,2.2,1.6,3.7,1c1.1-0.5,2.2-1,3.1-1.8c2.1-1.6,3.7-3.7,5.1-6c3.3-5.6,4.7-11.6,4.6-18c0-0.4-0.1-0.8-0.1-1.3
					c-1,0-1.8,0-2.7,0c-2.9-0.2-5.6-0.9-7.9-2.6C208.7,226.2,207,223.6,206.7,219.9z M236.8,293.2c1.8-1,3.3-2.1,4.6-3.5
					c3.1-3.4,4.8-7.4,5.7-11.9c1.2-5.9,1.1-11.7-1.3-17.4c-1.4-3.4-3.3-6.4-6.5-8.3c-0.3-0.2-0.7-0.3-1.2-0.6
					c-0.5,5.1-1,9.9-1.5,14.7c-0.3,3-0.6,6-0.7,9.1c-0.2,4.1-0.4,8.2-0.5,12.3c0,1.3,0.3,2.6,0.6,3.9
					C236.1,292,236.5,292.6,236.8,293.2z M271.3,250.9c-0.1,0-0.2,0.1-0.3,0.1c0,0.5-0.1,1.1-0.1,1.6c-0.1,1.7-0.2,3.3-0.4,5
					c-0.5,4.6-1,9.2-1.4,13.9c-0.3,3.2-0.5,6.4-0.7,9.7c-0.2,3.3-0.4,6.6-0.4,9.8c0,1.5,0.1,3,0.6,4.5c1.4-0.3,2.3-1.1,3.1-2.1
					c1.8-2.3,3.2-4.8,4.1-7.6c1.2-4.2,2.2-8.4,2.5-12.7c0.4-5.4-0.4-10.6-2.3-15.6C275,254.8,273.1,252.9,271.3,250.9z M243.2,221.9
					c0.2,0,0.3,0.1,0.4,0c3.5-1.5,6.5-3.6,8.6-6.7c1.9-2.8,2.1-6,0.9-9.1c-0.7-1.7-2-2-3.3-0.7c-0.8,0.8-1.5,1.8-2,2.8
					c-1,2.1-1.9,4.2-2.7,6.4C244.2,217,243.7,219.4,243.2,221.9z M301.1,231.7c4.3-0.1,7.9-1.4,10.4-4.7c1.4-1.9,1.7-4.2,0.8-6.5
					c-0.7-1.8-2.7-2.4-4.3-1.4c-0.9,0.6-1.8,1.5-2.5,2.4C303.3,224.5,302.2,227.9,301.1,231.7z M333.5,230.6c4.6-1.4,8-3.8,10.1-7.9
					c0.9-1.7,1.5-3.4,1.4-5.4c-0.1-1.8-0.8-2.2-2.5-1.6c-1.8,0.7-3.2,1.9-4.2,3.5c-2,2.9-3.2,6-4.2,9.3
					C333.8,229.2,333.7,229.8,333.5,230.6z M275.7,221.1c3.3-1,5.8-2.8,7.4-5.8c1.1-2,1.9-4,2.2-6.2c0.2-1.1,0.3-2.2,0.2-3.3
					c-0.1-1.5-1.5-2.3-2.8-1.1c-1.3,1.2-2.3,2.5-3.1,4.1c-1.9,3.7-3,7.6-3.9,11.6C275.7,220.6,275.7,220.8,275.7,221.1z
					 M221.7,227.7c-0.4-2.7-1.2-5-2.5-7.2c-1-1.7-2.6-2.9-4.4-3.6c-1.5-0.7-2.8-0.2-3.6,1.2c-0.9,1.6-0.8,3.2,0.2,4.7
					C213.8,226.6,217.4,227.6,221.7,227.7z"/>
				<path class="st12" d="M361.6,259.8c0-2.4,1.5-4,3.8-4.4c1-0.2,1.9,0.1,2.6,0.8c1.3,1.2,1.8,3.7,1.1,5.3
					c-0.7,1.6-2.6,2.5-4.6,2.2C362.8,263.4,361.6,261.8,361.6,259.8z"/>
			</g>
			<g>
				<g>
					<path d="M73.4,229.1c-0.5,0.6-0.8,1.2-1.3,1.7c-1.3,1.5-2.9,2-4.9,1.6c-3.9-0.8-6.6-3.9-6.7-7.9c-0.1-2.1,0-4.1,0.1-6.2
						c0.1-2.6,0.3-5.1,0.5-7.7c0-0.5,0.1-1.1,0.3-1.6c0.2-0.6,0.6-0.9,1.2-1c0.7-0.1,1.3,0.2,1.5,0.8c0.2,0.7,0.4,1.5,0.4,2.2
						c0,3.3,0,6.7,0,10c0,1.1,0,2.2,0,3.3c0.1,1.8,0.9,3.3,2.5,4.3c1.5,0.9,2.3,0.7,3.1-0.8c1-1.8,1.4-3.8,1.6-5.8
						c0.3-3.6,0.4-7.2,0.1-10.7c-0.1-1.5,0.5-2.4,1.7-2.6c1.3-0.2,2.3,0.5,2.5,2c0.2,1.1,0.2,2.2,0.2,3.3c0,2.8,0,5.6,0,8.3
						c0,1.5,0.2,3,0.8,4.4c0.4,0.9,0.8,1.8,2,1.9c1.2,0,1.6-1,1.9-1.9c0.4-1.1,0.6-2.3,0.8-3.5c0.4-3.9,0.7-7.9,1.1-11.8
						c0.1-0.5,0.2-1.1,0.4-1.6c0.5-1.1,1.5-1.6,2.6-1.4c1,0.2,1.6,1.1,1.6,2.3c-0.1,2.8-0.3,5.6-0.5,8.3c-0.1,1.9-0.3,3.7-0.5,5.6
						c-0.2,1.7-0.6,3.3-1.4,4.8c-2.5,4.6-8.1,4.9-11,0.5C73.7,229.7,73.6,229.5,73.4,229.1z"/>
					<path d="M123.1,215.5c0.5-0.4,0.8-0.7,1-0.9c1.4-1.3,3.1-2.2,5-2.6c2.4-0.5,4.3,0.3,5.5,2.5c1.1,1.9,1.4,4.1,1.7,6.2
						c0.2,1.9,0.4,3.8,0.6,5.7c0.1,0.6,0.1,1.5,0.8,1.7c0.9,0.2,1.5-0.3,2.1-1c0.5-0.6,0.9-1.2,1.4-1.8c0.4-0.5,0.9-0.7,1.5-0.5
						c0.6,0.2,0.8,0.7,0.9,1.3c0.2,1.1,0,2.1-0.6,3c-1.2,1.9-3,3-5.3,3.2c-2.2,0.2-4.2-1.1-4.8-3.4c-0.5-1.8-0.7-3.8-1-5.6
						c-0.3-1.8-0.4-3.7-0.8-5.5c-0.5-2.1-0.7-2.7-3.2-1.4c-1.3,0.7-2.1,1.9-2.6,3.3c-1.1,2.8-1.7,5.8-2,8.8c0,0.5,0,1-0.1,1.5
						c-0.2,1.1-0.9,1.7-1.8,1.7c-1,0-1.7-0.7-1.7-1.9c-0.1-1.6-0.2-3.1-0.2-4.7c0-6.1,0-12.1,0-18.2c0-0.7,0.1-1.3,0.2-2
						c0.2-0.9,0.7-1.4,1.4-1.4c0.7,0,1.3,0.5,1.4,1.3c0.3,1.6,0.5,3.2,0.6,4.8C123,211.6,123,213.4,123.1,215.5z"/>
					<path d="M107,214.9c-0.7-0.1-1.3-0.1-1.8-0.2c-0.5-0.1-1.1-0.1-1.6-0.3c-0.9-0.2-1.4-0.8-1.3-1.4c0-0.6,0.6-1.1,1.5-1.3
						c0.4-0.1,0.8-0.1,1.2-0.1c0.5,0,0.9-0.1,1.4-0.2c0.2,0,0.4-0.1,0.6-0.1c0.1-1.7,0.2-3.4,0.3-5c0.1-1,0.2-1.9,0.3-2.9
						c0-0.3,0.1-0.7,0.3-1c0.3-0.3,0.7-0.7,1.2-0.8c0.6-0.1,0.9,0.4,1,1c0.3,1.7,0.6,3.5,0.9,5.2c0.1,1,0.1,2,0.2,3.2
						c1-0.1,1.9-0.3,2.7-0.4c0.4-0.1,0.8-0.2,1.2-0.2c0.6-0.1,1.2,0.1,1.3,0.7c0.1,0.5,0,1.2-0.3,1.5c-0.4,0.5-1.1,0.7-1.7,1
						c-1,0.4-2,0.6-3,0.9c-0.4,5.5,0.2,12.5,1.4,14.6c0.3-0.3,0.6-0.5,0.8-0.9c0.9-1.3,1.5-2.7,1.8-4.3c0.1-0.6,0.2-1.3,0.5-1.9
						c0.2-0.4,0.6-0.7,0.9-0.8c0.6-0.2,1,0.2,1.2,0.7c0.2,0.6,0.4,1.3,0.4,1.9c0,3-1.1,5.6-2.8,7.8c-1.6,2-4.7,1.7-6.3-0.5
						c-0.6-0.8-1-1.9-1.2-2.9c-0.8-3.3-0.7-6.6-0.8-10C106.9,217.2,107,216.1,107,214.9z"/>
					<path d="M98.3,230.1c0.7-0.7,1.4-1.2,1.9-1.8c0.5-0.5,0.8-1,1.3-1.5c0.9-0.7,1.8-0.4,2,0.7c0.5,2.8-3.3,6.6-6.1,6.2
						c-1.4-0.2-2.4-1-3.2-2.1c-1.4-2-2.2-4.2-2.2-6.6c0-4.8,0.1-9.7,0.2-14.5c0-0.4,0-0.8,0.1-1.2c0.2-0.9,0.6-1.5,1.3-1.5
						c0.8,0,1.2,0.6,1.3,1.2c0.3,1.1,0.5,2.2,0.6,3.3c0.2,3.8,0.4,7.7,0.6,11.5c0.1,1.6,0.1,3.2,1,4.7
						C97.5,229,97.8,229.5,98.3,230.1z"/>
				</g>
				<path d="M95.3,201.7c0,1.2-1.1,2.1-2.3,2.1c-1.4,0-2.5-1.1-2.5-2.5c0-1,1.2-2,2.3-1.9C94,199.4,95.3,200.6,95.3,201.7z"/>
			</g>
		</g>
		<g>
			<path class="st11" d="M88.5,134.7c4.3,3.2,6.9,7.4,7.7,12.4c0.8,5.2-0.6,9.7-4.3,13.3c-4.1,4-10.2,6-18.3,6v3.7
				c0.1,5.7,0.1,10.2,0.1,13.5c-0.1,5.8-0.3,7-0.5,7.4c-0.3,0.6-0.9,0.9-1.9,1.1c-0.5,0.1-1.2,0.2-2,0.2c-0.5,0.1-1.2,0.1-2,0
				l-0.8,0c-0.1,0-0.4,0-0.8,0.1c0,0-0.1,0-0.1,0c-0.3,0-0.5,0-0.8,0c-0.5,0-0.9,0-1.2-0.1c-1-0.3-1.6-1-1.6-2.1
				c-1.6-6.4-1.6-21.6-1.5-28.3c0-2.1,0.3-30.2,2.7-30.7C69.5,130,81.9,129.8,88.5,134.7z M73.1,132.8v1.9c0.1,1.4,0.1,3.3,0.1,5.7
				c0.1,4.6,0.1,7.8,0.1,9.7c0,0.6,0,2,0.1,4.4c0.1,3.7,0.1,6.3,0.2,7.6v1.9c0,0,0,0,0.1,0c7.4,0,13-1.8,16.6-5.3
				c3.1-3,4.3-6.8,3.6-11.2c-0.7-4.4-2.9-8-6.8-10.9C83.1,133.7,78.5,132.4,73.1,132.8z"/>
			<path class="st11" d="M123.5,192c-23.2-3.8-26.4-37.7-14-53.1c10.3-12.7,30.1-4.6,36.3,5.7c3.6,6,5,13.1,4.1,21.1
				c-0.9,7.8-3.7,14.4-8.3,19.4c-4.2,4.7-9.1,7.1-14.7,7.1C125.8,192.3,124.7,192.2,123.5,192z M119.8,188.6
				c1.3,0.5,2.7,0.8,4.1,1.1c6.1,1,11.5-1,16-6c4.2-4.7,6.8-10.8,7.6-18.1c0.8-7.5-0.4-14.1-3.7-19.7c-6.5-10.7-20.5-11.3-23.9-10.7
				C116.7,183.7,119.8,187,119.8,188.6z"/>
			<path class="st11" d="M156.8,183c-0.6-2.1-0.7-4.7-0.4-7.7c0.1-1,0.3-2.4,0.7-4.2c0.3-1.8,0.6-3.1,0.7-3.9c0-0.4,0.2-0.6,0.4-0.8
				c0.2-0.2,0.6-0.2,0.9-0.2c0.4,0.1,0.7,0.2,0.8,0.5c0.1,0.2,0.2,0.5,0.1,0.9c-0.1,0.8-0.3,2.2-0.6,4c-0.3,1.8-0.5,3.2-0.6,4.1
				c-0.3,2.6-0.2,4.9,0.3,6.7c0.8,2.6,2.4,4.5,4.9,5.8c4.8,2.8,9,1.1,11.2-2.9c1.2-2.2,2-5.2,2.3-8.8c0.3-3.2,0.2-6.5-0.4-9.9
				c-1.1-6.1-2.8-8.3-4.3-9.4c-0.4-0.3-1-0.7-1.6-1.3c-0.1-0.1-0.2-0.2-0.4-0.3c-0.2-0.2-0.3-0.2-0.4-0.3c-0.4-0.3-0.7-0.5-0.9-0.7
				c-1.3-1-2.3-1.9-3.1-2.6c-2.5-2.1-4.2-4.1-5.2-5.9c-0.8-1.4-1.3-2.9-1.4-4.3l0-0.4c0-0.8,0.1-1.6,0.3-2.4
				c0.5-2.3,1.8-4.4,3.8-6.2c0.1-0.2,0.2-0.3,0.4-0.4c1.5-1.3,3.3-2.2,5.3-2.8c2.4-0.8,4.8-0.9,7-0.1c2.2,0.8,4,2.3,5.2,4.5
				c1,1.8,1.8,4.6,2.1,8.2c0.1,0.6,0.1,1.6,0.2,3c0.1,1.6,0.2,2.7,0.3,3.4c0,0.4,0,0.7-0.2,0.9c-0.2,0.2-0.5,0.4-0.8,0.4
				c-0.4,0-0.7,0-0.9-0.2c-0.2-0.2-0.4-0.5-0.4-0.8c-0.1-0.7-0.2-1.9-0.3-3.5c-0.1-1.3-0.2-2.3-0.2-2.9c-0.4-3.3-1-5.7-1.8-7.2
				c-0.8-1.5-1.9-2.5-3.3-3.1h-0.1c-1.6-0.2-2.9,0.5-4,2.4c-1.1,1.8-1.7,4.4-1.9,7.5c-0.2,3,0,5.8,0.7,8.2c1.1,4,5.2,6.5,8.5,9.8
				c1.9,1.9,3.4,3.8,4.5,5.8c2.7,4.6,3.6,9.6,2.5,15.1c0,0.1,0,0.2-0.1,0.3c0,0.2,0,0.3-0.1,0.4c-0.7,3.1-2.5,5.7-5.4,7.7
				c-2.6,1.7-5.7,2.7-9.1,2.9c-0.3,0-0.7,0-1,0c-3.1,0-5.9-0.7-8.3-2C159.8,188.7,157.8,186.2,156.8,183z"/>
			<path class="st11" d="M194,183c-0.6-2.1-0.7-4.7-0.4-7.7c0.1-1,0.3-2.4,0.7-4.2c0.3-1.8,0.6-3.1,0.7-3.9c0-0.4,0.2-0.6,0.4-0.8
				c0.2-0.2,0.6-0.2,0.9-0.2c0.4,0.1,0.7,0.2,0.8,0.5c0.1,0.2,0.2,0.5,0.1,0.9c-0.1,0.8-0.3,2.2-0.6,4c-0.3,1.8-0.5,3.2-0.6,4.1
				c-0.3,2.6-0.2,4.9,0.3,6.7c0.8,2.6,2.4,4.5,4.9,5.8c4.8,2.8,9,1.1,11.2-2.9c1.2-2.2,2-5.2,2.3-8.8c0.3-3.2,0.2-6.5-0.4-9.9
				c-1.1-6.1-2.8-8.3-4.3-9.4c-0.4-0.3-1-0.7-1.6-1.3c-0.1-0.1-0.2-0.2-0.4-0.3c-0.2-0.2-0.3-0.2-0.4-0.3c-0.4-0.3-0.7-0.5-0.9-0.7
				c-1.3-1-2.3-1.9-3.1-2.6c-2.5-2.1-4.2-4.1-5.2-5.9c-0.8-1.4-1.3-2.9-1.4-4.3l0-0.4c0-0.8,0.1-1.6,0.3-2.4
				c0.5-2.3,1.8-4.4,3.8-6.2c0.1-0.2,0.2-0.3,0.4-0.4c1.5-1.3,3.3-2.2,5.3-2.8c2.4-0.8,4.8-0.9,7-0.1c2.2,0.8,4,2.3,5.2,4.5
				c1,1.8,1.8,4.6,2.1,8.2c0.1,0.6,0.1,1.6,0.2,3c0.1,1.6,0.2,2.7,0.3,3.4c0,0.4,0,0.7-0.2,0.9c-0.2,0.2-0.5,0.4-0.8,0.4
				c-0.4,0-0.7,0-0.9-0.2c-0.2-0.2-0.4-0.5-0.4-0.8c-0.1-0.7-0.2-1.9-0.3-3.5c-0.1-1.3-0.2-2.3-0.2-2.9c-0.4-3.3-1-5.7-1.8-7.2
				c-0.8-1.5-1.9-2.5-3.3-3.1h-0.1c-1.6-0.2-2.9,0.5-4,2.4c-1.1,1.8-1.7,4.4-1.9,7.5c-0.2,3,0,5.8,0.7,8.2c1.1,4,5.2,6.5,8.5,9.8
				c1.9,1.9,3.4,3.8,4.5,5.8c2.7,4.6,3.6,9.6,2.5,15.1c0,0.1,0,0.2-0.1,0.3c0,0.2,0,0.3-0.1,0.4c-0.7,3.1-2.5,5.7-5.4,7.7
				c-2.6,1.7-5.7,2.7-9.1,2.9c-0.3,0-0.7,0-1,0c-3.1,0-5.9-0.7-8.3-2C196.9,188.7,194.9,186.2,194,183z"/>
			<path class="st11" d="M230.7,190.5c-0.2-0.2-0.2-0.6-0.2-0.9c0.1-0.7,0.6-1.1,1.4-1c1.8,0.4,3.5,0.6,5.1,0.8c0,0,0.1-0.1,0.2-0.1
				c-0.4-2.6-0.5-6-0.3-10.2c0-0.7,0.1-1.8,0.2-3.1c0.2-3.2,0.2-5.5,0.2-7c0-2.3-0.1-6-0.2-10.9c-0.1-2.4-0.1-4.3-0.2-5.6
				c-0.2-7.3,0-13.5,0.5-18.2c-1.1,0-2.1,0.1-3.1,0.1c-0.3,0-0.6,0-0.9-0.2c-0.2-0.2-0.3-0.5-0.3-0.9c0-0.7,0.4-1.2,1.2-1.3
				c2.4-0.1,5.1-0.1,8-0.1c0.6-0.1,1.2-0.1,1.7,0l6.8,0c0.7,0,1.2,0.5,1.2,1.2c0,0.7-0.5,1.2-1.2,1.2h-4.6v0.7
				c-0.1,0.3-0.1,0.5-0.1,0.6c0.5,12.3,0,25,0.3,34.9c0,0.1,0,0.6,0.1,1.5c0.1,0.9,0.1,1.9,0.2,2.9c0.1,1.3,0.1,1.6,0.1,1.7
				c0,0,0,0.1,0,0.1c0.1,1.2,0.1,2.3,0.2,3.3c0.2,2.8,0.2,5.1,0.2,6.7c0,1.1-0.1,1.8-0.2,2.4c0,0.3-0.1,0.6-0.1,0.8
				c1.8,0,3.5-0.2,5-0.5c0.7-0.1,1.2,0.3,1.3,1c0.1,0.4,0,0.7-0.2,0.9c-0.2,0.2-0.5,0.4-0.8,0.4c-2,0.3-4.3,0.5-6.7,0.5
				c-4.1,0-8.8-0.5-14.1-1.4C231.1,190.9,230.9,190.7,230.7,190.5z"/>
			<path class="st11" d="M301.6,165c0.1,4.4-1.4,8.9-4.4,13.5c-2.8,4.5-6.3,8-10.5,10.5c-3.5,2.2-6.9,3.3-10.2,3.3
				c-0.9,0-1.9-0.1-2.8-0.3c-6-1.4-9.2-1.7-9.2-1.7c-2.4-0.2-3.2-0.2-3.5-0.2c-0.8,0.1-1.3-0.3-1.3-1.1c-0.1-0.7,0.3-1.3,1.1-1.3
				c0,0,0.1,0,0.1,0c0-4.1-0.1-10.2-0.3-18.2c-0.1-3.7-0.2-6.5-0.2-8.4c-0.2-9.5-0.3-18.2,0.4-27.9c-0.7,0.1-1.2-0.3-1.3-1
				c-0.1-0.7,0.2-1.2,1-1.4c15.6-2.5,21.1-1.7,25.4,2.1c2,1.8,3.2,3.9,3.5,6.4c0.4,2.7-0.3,5.5-2.1,8.2c-0.8,1.2-1.8,2.5-3.1,3.6
				c2.1-0.4,3.9-0.5,5.5-0.3c2.1,0.2,4,0.9,5.7,2.2C299.4,156,301.5,160,301.6,165z M299.1,165c-0.1-4.2-1.8-7.4-5.2-9.8
				c-2.4-1.7-5.8-2.2-9.9-1.4c-1.9,0.4-3.7,1-5.6,1.8c-0.5,0.3-1.1,0.6-1.6,0.9l-4,2.4c-0.2,0.1-0.3,0.1-0.4,0.2
				c0,0.2,0,0.4-0.1,0.7c0,0.1-0.5,12.7-0.5,12.8c0,0.7,0.1,2.7,0.2,5.7c0,0.7,0,1.3,0.1,1.8c0,0,0,0,0,0c0.1,2.6,0.1,4.5,0.1,5.9
				c0,0.6,0,2.1,0,3.1c0.7,0.3,1.3,0.5,1.8,0.6c3.5,0.7,7.3-0.2,11.3-2.6c3.9-2.4,7.1-5.7,9.7-9.8C297.8,173,299.2,168.9,299.1,165z
				 M272.5,132.3c0.5,2.6,0.6,9.2,0.1,20.2c0,1.2-0.1,2.4-0.1,3.8c1.2-0.7,2.2-1.4,3.1-1.8c1-0.6,1.6-1,2-1.2
				c3.6-2.3,6.1-4.6,7.6-6.9c1.5-2.3,2.1-4.5,1.8-6.5c-0.3-1.9-1.2-3.5-2.8-4.9c-1.5-1.4-3.4-2.3-5.6-2.8
				C276.5,131.7,274.5,131.8,272.5,132.3z"/>
			<path class="st11" d="M329.9,190.9c0,0.7-0.5,1.2-1.2,1.2c-0.8,0-19.2,0.4-19.8-0.1c-2.5-2-0.9-36.8-0.7-40
				c0.1-1.5,0-3.8-0.1-6.9v-1.3c-0.2-4.4,0-7.9,0.4-10.4c0-0.1,0.6-1.3,0.7-1.4c0.2-0.2,0.5-0.3,0.9-0.2l3.1,0c0.9,0,1.7,0,2.3,0.1
				c0.3,0,0.7,0.1,1,0.2c0.4,0.1,0.8,0.4,1,0.8c0.3,0.6,0.6,2.2,0.7,10.4c0.2,5.7,0.2,18.6,0.2,23.2c0.1,13.1,0.2,20.9,0.3,23.3
				c0.2,0,0.5,0,0.7,0c0.4,0,1,0,1.8,0h7.5C329.5,189.7,329.9,190.2,329.9,190.9z"/>
			<path class="st11" d="M336.1,164.1c-0.2-6.8-0.2-12.5-0.1-17c0.2-5.6-0.1-8.2,1.3-12.9c0.9-2.9,19.5-2.8,20.8-2.8
				c0.8,0.1,2,0.1,3.5,0.2c2.6,0.1,4.5,0.2,5.7,0.2c0.7,0,1.2,0.5,1.2,1.2c0,0.7-0.5,1.2-1.2,1.2c-1.3,0-3.2-0.1-5.8-0.2
				c-1.5-0.1-2.7-0.1-3.4-0.2c-3.2,0-5.8,0-8,0.3c0,0.1,0,0.2,0,0.4v0.5c0,0.1,0,0.1,0,0.2l-0.1,0.2c0,7.6-0.3,39-0.4,41.8
				c0.1,0,0.1,0,0.2,0c7.8,0.3,10.5,0.1,11.8,0.1c0.7,0,1.2,0.5,1.2,1.2s-0.5,1.2-1.2,1.2c-1.5,0-4.8,0.3-12-0.2c0,0,0,0-0.1,0
				c0,3.5-0.1,7-0.1,10.4c0,0.1,0.1,0.1,0.1,0.2c1.6-0.3,3.3-0.4,5.2-0.5c1.4-0.1,3.7-0.1,6.6-0.1h0.2c4.6,0.1,8.1-0.1,10.3-0.4
				c0.4,0,0.7,0,0.9,0.2c0.2,0.2,0.4,0.5,0.4,0.8c0.1,0.7-0.3,1.3-1.1,1.3c-2.3,0.3-5.9,0.5-10.6,0.4h-0.2c-2.9,0-5.1,0-6.4,0.1
				c-1.9,0.1-15.6,0.8-17.1,0c-1.3-0.3-0.9-2.3-1.4-18.5C336.4,169.5,336.2,166.5,336.1,164.1z"/>
		</g>
		<g>
			<g>
				<path d="M79.6,82c0.2-0.8,0.3-1.4,0.5-2c0.3-0.8,0.5-1.6,1-2.3c1.1-1.7,2.9-1.7,4,0c0.5,0.9,0.9,1.9,1.1,2.9
					c0.3,1.8,0.4,3.6,0.6,5.3c0.6,6.2,0.4,12.5,0.4,18.7c0,1.7,0.3,3.5,0.5,5.2c0.1,0.6,0.3,1.4,1.1,1.8c0.9-0.5,1.4-1.3,2-2.2
					c0.5-0.7,1-1.3,1.5-1.9c0.4-0.4,1-0.6,1.5-0.2c0.3,0.3,0.6,0.8,0.7,1.2c0,0.7-0.1,1.4-0.3,2c-0.5,1.9-1.5,3.5-2.8,4.9
					c-1.6,1.8-4.7,2.2-6.8,0.7c-1.1-0.8-2-1.8-3-2.8c-0.3-0.3-0.5-0.7-0.9-1.2c-1.1,0.9-2.1,1.8-3,2.7c-3.9,3.4-11.4,3.4-15.3-1.6
					c-1.2-1.5-2.1-3.2-2.5-5c-1.8-7.3-1.2-14.4,2.5-21.1c2.5-4.6,6.6-7,11.9-6.8c1.4,0,2.9,0.6,4.3,0.9C78.7,81.6,79.1,81.8,79.6,82
					z M79.2,85c-4.2-2.6-8.3-1.4-10.3,2.5c-0.6,1.1-1,2.3-1.2,3.5c-0.8,3.9-0.8,7.9-0.3,11.9c0.4,2.7,1.2,5.3,2.8,7.5
					c1.2,1.6,3.2,2.3,5,1.4c1.2-0.6,2.3-1.4,3.5-2.1c0.5-0.3,0.5-0.8,0.4-1.3c-0.2-1.7-0.5-3.4-0.5-5.1c0.1-5.3,0.3-10.6,0.5-16
					C79.2,86.6,79.2,85.8,79.2,85z"/>
				<path d="M121.5,109.7c1.1-1.2,1.8-2.4,2.4-3.8c0.3-0.6,0.5-1.3,0.9-1.9c0.3-0.6,0.8-1.2,1.6-1c0.7,0.1,1.1,0.7,1,1.8
					c-0.1,1.2-0.3,2.4-0.7,3.5c-0.4,1.2-1.1,2.2-1.7,3.3c-0.5,0.9-1.1,1.7-1.6,2.6c-1.1,2.1-3.3,2.8-5.7,2c-1.2-0.4-2.2-1.2-2.9-2.2
					c-1-1.5-1.6-3.1-2-4.8c-0.7-3.1-1.1-6.2-1.1-9.3c-0.1-7.3-0.1-14.5,0-21.8c0-3,0.4-5.9,0.8-8.9c0.1-1.1,0.7-2.1,1.1-3.1
					c0.4-0.8,1.1-1.4,2.1-1.3c0.9,0.1,1.5,0.7,1.8,1.5c0.3,1.1,0.7,2.3,0.8,3.5c0.3,4.5,0.6,9,0.8,13.5c0.3,6.1,0.5,12.1,0.9,18.2
					C120.2,104.2,120.6,106.9,121.5,109.7z"/>
				<path d="M105,111.3c1.1-0.2,1.7-0.7,2.1-1.3c0.4-0.6,0.9-1.3,1.4-1.9c0.4-0.5,0.9-0.7,1.4-0.5c0.6,0.2,0.9,0.7,0.9,1.2
					c0,0.9-0.1,1.8-0.4,2.6c-1.1,3.1-4.5,5.8-8.8,5c-1.2-0.2-2.2-0.9-3-1.8c-1.1-1.3-1.9-2.8-2.3-4.5c-0.9-3.4-1.1-6.8-1.1-10.2
					c0-5.6,0.1-11.3,0.2-16.9c0-3.1,0-6.2,0.2-9.2c0.1-1.6,0.4-3.2,0.8-4.7c0.1-0.6,0.4-1.2,0.8-1.7c0.8-1.1,2.2-1.1,3,0
					c0.5,0.7,0.9,1.5,1.1,2.3c0.5,1.9,0.8,3.9,1.1,5.8c1,7.2,1.1,14.5,1.3,21.7c0.1,3.9,0.4,7.9,0.7,11.8
					C104.4,109.7,104.7,110.5,105,111.3z"/>
			</g>
			<g>
				<path d="M329.4,112.1c0.6-0.9,1-1.5,1.4-2.1c0.2-0.3,0.4-0.6,0.7-0.9c0.4-0.4,0.8-0.6,1.4-0.4c0.6,0.2,0.9,0.6,0.9,1.2
					c0.1,2.7-0.8,5-3.1,6.5c-0.8,0.5-1.7,0.8-2.5,1c-2,0.4-3.6-0.4-4.7-2.1c-0.4-0.6-0.7-1.3-1.2-2.2c-0.5,0.5-0.9,0.9-1.2,1.3
					c-1.7,1.9-3.8,3.1-6.4,3.4c-3.9,0.3-7.3-1.3-9.1-4.6c-1.3-2.4-2.1-4.9-2.2-7.6c-0.3-6.2,0.8-12.2,3.3-17.9
					c0.5-1.1,1.1-2.2,1.8-3.2c3.1-4.4,9.1-5.1,13.1-2c0.1,0.1,0.2,0.1,0.4,0.2c0.2-0.4,0.3-0.8,0.5-1.2c0.2-0.5,0.4-0.9,0.7-1.3
					c1-1.4,2.6-1.2,3.2,0.4c0.3,0.8,0.5,1.6,0.6,2.4c0.4,3.8,0.8,7.6,1.1,11.4c0.4,5.4,0.7,10.9,1.1,16.4
					C329.1,111.1,329.2,111.4,329.4,112.1z M320.9,95.7c0.1,0,0.2,0,0.3,0c0-1.4,0-2.8,0-4.1c0-1.4,0.1-2.8,0.2-4.1
					c0.1-0.9-0.3-1.6-1-2.1c-2.8-2.2-6.9-1.5-8.5,1.7c-0.4,0.8-0.8,1.8-1,2.7c-1.2,4.8-1.2,9.6-0.7,14.5c0.2,2,0.9,3.9,1.9,5.7
					c1.3,2.2,3.4,3,5.7,1.9c1-0.5,1.8-1.3,2.6-2c0.8-0.7,1.1-1.7,1-2.8C321.1,103.3,321,99.5,320.9,95.7z"/>
				<path d="M358.5,96.9c0,2.7-0.1,5.2,0,7.8c0,1.7,0.2,3.5,0.4,5.2c0.1,0.6,0.3,1.3,0.5,1.8c0.4,0.9,0.9,1.2,1.9,1
					c0.8-0.2,1.6-0.6,2.1-1.2c0.9-1,1.7-2.1,2.4-3.3c0.6-1.2,1-2.6,1.5-3.9c0.3-0.7,0.7-1.3,1.4-1.6c1-0.5,1.9,0.1,1.7,1.3
					c-0.5,2.7-0.9,5.4-1.6,8c-1.1,4-3.7,6.8-7.8,7.8c-3.8,1-7.6-0.6-9.7-3.9c-1.2-1.9-1.8-3.9-2-6.1c-0.4-7.9,0.4-15.6,3.2-23
					c0.6-1.6,1.5-3.1,2.6-4.3c1.2-1.3,2.5-2.3,4.2-2.7c2-0.5,3.7,0,5.2,1.4c2.1,2,2.7,4.6,2.2,7.4c-0.7,4.2-3.3,6.9-7.3,8.2
					C359.2,96.7,358.8,96.8,358.5,96.9z M358.4,94c2-0.9,3.5-1.9,4.4-3.6c0.8-1.4,1-3,0.4-4.5c-0.3-0.9-0.9-1.8-1.9-1.8
					c-0.9-0.1-1.3,0.9-1.7,1.6C358.6,88.2,358.6,90.9,358.4,94z"/>
				<path d="M341.6,84.7c1.2-1.1,2.3-2.2,3.5-3.1c1.6-1.2,3.4-1.7,5.3-0.6c0.9,0.5,1.3,1.4,1.2,2.3c-0.1,1-0.8,1.4-1.8,1.1
					c-2.5-0.7-3.7-0.3-5.1,2c-1.6,2.6-1.8,5.5-1.6,8.5c0.2,2.6,0.4,5.1,0.6,7.7c0.2,3.1,0.5,6.2,0.6,9.3c0,0.7,0,1.5-0.2,2.2
					c-0.3,1.5-1.5,2.7-3,2.8c-1.5,0.2-2.8-0.5-3.5-1.8c-0.5-0.9-0.8-2.1-0.9-3.1c-0.3-2.9-0.5-5.8-0.6-8.6
					c-0.2-4.5-0.4-9.1-0.5-13.6c0-2.1,0.3-4.3,0.5-6.4c0.1-0.7,0.3-1.4,0.6-2c0.8-1.4,2.3-1.5,3.2-0.2c0.4,0.5,0.6,1.1,0.8,1.7
					C341.3,83.4,341.4,84,341.6,84.7z"/>
			</g>
			<g>
				<path d="M255.3,86.6c0.2-0.4,0.4-0.8,0.7-1.2c1.1-1.7,3.3-1.7,4.2,0.1c0.6,1.1,0.9,2.3,1,3.5c0.3,3.2,0.6,6.5,0.7,9.8
					c0.4,10,0.4,20-0.3,30c-0.2,3-0.2,6-0.3,8.9c-0.1,1.8-0.3,3.6-1.1,5.2c-1.2,2.6-3.3,4.3-6.2,4.8c-1.4,0.2-2.8,0.4-4.2,0.4
					c-2.7,0-4.8-1.5-5.6-4.1c-1.3-4.2-1.7-8.5-1.6-12.9c0-0.7,0.2-1.2,0.9-1.4c0.6-0.2,1.1,0.1,1.6,0.8c0.8,1.3,1,2.8,1.3,4.3
					c0.4,1.8,0.9,3.6,1.4,5.5c0.1,0.4,0.4,0.8,0.6,1.2c0.5,0.9,1.2,1.3,2.4,1.2c2.9-0.2,4-0.7,4.1-4.3c0.1-2.9-0.2-5.9-0.3-8.8
					c-0.2-4.5-0.3-8.9-0.5-13.4c0-0.3,0-0.5,0-1c-0.4,0.2-0.7,0.4-0.9,0.6c-3.4,3-10.6,2.6-12.8-3.7c-0.4-1.2-0.7-2.6-0.8-3.9
					c-0.2-5,0.6-9.9,2.5-14.5c0.7-1.7,1.7-3.3,2.9-4.8c2.3-3.2,6.5-4.3,10.1-2.5C255,86.6,255.2,86.6,255.3,86.6z M253.9,111.2
					c0.1-0.2,0.1-0.3,0.1-0.4c0.2-6.9,0.1-13.8,0.8-20.6c0-0.3-0.2-0.7-0.4-0.9c-1.9-1.3-4.5-0.8-5.3,1.4c-0.4,1.2-0.9,2.3-1,3.5
					c-0.7,4.9-0.9,9.9-0.8,14.8c0,0.6,0.1,1.2,0.3,1.8c0.5,1.7,1.9,2.4,3.5,1.8C252.1,112.2,253,111.6,253.9,111.2z"/>
				<path d="M182.3,92.2c-2,0.3-3.3,1.2-4.4,2.5c-0.2,0.3-0.3,0.8-0.3,1.1c0.3,4.4,0.6,8.8,0.9,13.2c0.1,1.7,0.3,3.4,0.4,5.1
					c0,0.5,0,0.9-0.1,1.4c-0.2,1.5-1.4,2.7-2.7,2.9c-1.6,0.3-3.1-0.4-3.8-1.9c-0.3-0.6-0.5-1.3-0.6-2c-0.5-5.9-1.1-11.9-1.4-17.8
					c-0.4-6.7-0.7-13.4-0.5-20.1c0.1-2.6,0.3-5.1,0.5-7.7c0-0.5,0.2-1.1,0.3-1.6c0.3-0.9,1-1.5,1.9-1.6c1-0.1,1.7,0.3,2.2,1.1
					c0.3,0.6,0.7,1.3,0.8,2c0.3,2.4,0.6,4.7,0.8,7.1c0.3,4.6,0.6,9.2,0.9,13.7c0,0.4,0.1,0.9,0.2,1.4c1.1-0.5,2-1,3-1.3
					c3-1.1,5-0.3,6.3,2.6c1.2,2.6,1.9,5.5,2.3,8.3c0.5,3.4,0.9,6.8,1.4,10.2c0,0.2,0.1,0.4,0.2,1c0.4-0.7,0.6-1.2,0.8-1.6
					c0.2-0.4,0.4-0.8,0.8-1.1c0.6-0.6,1.6-0.4,1.9,0.4c0.2,0.6,0.3,1.4,0.2,2c-0.3,2.2-1.4,4.1-2.9,5.7c-1.6,1.7-4.7,1.4-6.4-0.6
					c-0.7-0.8-1.1-1.8-1.3-2.8c-0.7-3.6-0.9-7.2-0.9-10.8c0-3,0-6-0.1-9C182.5,93.6,182.4,92.9,182.3,92.2z"/>
				<path d="M214.2,91.6c0.5-0.6,0.8-0.9,1.1-1.3c1.6-2,3.4-3.7,5.8-4.8c2.6-1.2,4.8-0.7,6.6,1.6c1.3,1.6,1.8,3.6,2.2,5.6
					c0.7,3.6,0.8,7.3,1.1,11c0.2,2.8,0.4,5.6,0.5,8.4c0,0.2,0.1,0.4,0.1,1c0.7-1,1.2-1.8,1.8-2.6c0.3-0.4,0.5-0.8,0.8-1.1
					c0.4-0.4,0.8-0.6,1.4-0.3c0.6,0.3,0.6,0.8,0.6,1.3c0,0.3-0.1,0.6-0.2,0.9c-0.9,2-1.7,4.1-3,5.9c-1.4,1.8-3.2,2.7-5.4,2.3
					c-2.4-0.4-3.8-1.9-4.5-4.1c-0.6-2-0.6-4-0.4-6c0.4-3.9,0.9-7.9,1.2-11.8c0.2-2.5,0.4-5.1-0.1-7.6c-0.4-1.9-0.8-2.2-2.6-1.3
					c-0.7,0.3-1.4,0.8-1.9,1.3c-0.9,0.9-1.8,1.9-2.6,2.9c-1.6,1.9-2,3.9-1.6,6.4c0.7,4.2,1,8.5,1.4,12.7c0.2,1.9,0.1,3.9-0.9,5.6
					c-0.6,1.1-1.5,1.6-2.7,1.4c-0.8-0.1-1.4-0.6-1.9-1.2c-1-1.4-1.4-2.9-1.5-4.5c-0.4-7.3-0.7-14.7,0.1-22c0.1-1.2,0.2-2.4,0.4-3.6
					c0.2-1.4,0.8-2,1.7-2.1c0.9-0.1,1.7,0.6,2,1.9C213.7,88.7,213.9,90,214.2,91.6z"/>
				<path d="M157.9,80.5c2.2-0.3,4.2-0.5,6.2-0.8c1.1-0.1,1.8,0.2,2,1c0.2,0.8-0.3,1.6-1.2,1.9c-1.2,0.3-2.4,0.5-3.6,0.7
					c-1,0.2-2,0.3-3,0.5c0,0.7,0,1.4,0,2c0.6,7.2,1.2,14.5,1.9,21.7c0.2,1.9,0.4,3.7,1.2,5.6c1.5-1.2,2.6-2.5,3.5-4.1
					c0.5-0.9,1-1.8,1.5-2.6c0.2-0.3,0.3-0.6,0.6-0.7c0.4-0.2,0.9-0.3,1.3-0.2c0.5,0.1,0.7,0.6,0.7,1.1c0,0.5-0.1,1.1-0.2,1.6
					c-0.9,3.9-3.1,6.9-6,9.5c-1.7,1.4-4.4,1.4-6.3,0c-1.3-0.9-2.2-2.1-2.6-3.6c-0.6-2.1-1.1-4.2-1.4-6.3c-1-7.4-1.7-14.8-2-22.2
					c0-0.4-0.1-0.8-0.1-1.3c-1,0-2,0-2.9,0c-0.8,0-1.6-0.1-2.3-0.2c-0.4-0.1-0.8-0.2-1.1-0.4c-0.9-0.6-0.8-1.7,0.2-2
					c0.5-0.2,1.1-0.2,1.6-0.3c1.5-0.1,2.9-0.2,4.5-0.4c0-0.5,0.1-1,0.1-1.5c0.2-2.7,0.4-5.3,0.7-8c0.1-1,0.4-2,0.8-2.9
					c0.6-1.5,1.4-2.1,2.6-2c1.2,0.1,2,0.8,2.3,2.3c0.3,1.3,0.4,2.6,0.5,4c0.2,2.2,0.3,4.5,0.5,6.7C157.8,79.7,157.8,80,157.9,80.5z"
					/>
				<path d="M271.1,81.7c1.8,0,3.3,0.8,4.6,2.1c0.8,0.8,1,1.8,0.7,2.8c-0.1,0.5-0.5,1-0.9,1.3c-0.7,0.5-1.5,0.2-1.6-0.7
					c0-0.8-0.3-1.4-1-1.7c-0.9-0.4-1.7-0.5-2.6-0.1c-2.7,1.2-3,5.6-1.2,7.2c2.8,2.4,5.3,5.1,7.9,7.7c1.8,1.8,3.2,4,4.1,6.5
					c0.9,2.9,0.7,5.6-1,8.2c-0.9,1.3-2,2.3-3.4,3c-1.8,0.9-3.7,1.3-5.7,1.3c-2.7,0-4.4-1.5-4.9-4.1c-0.2-0.9-0.3-1.7-0.3-2.6
					c0-0.8,0.3-1.6,1.1-2.2c0.9-0.6,1.7-0.3,1.9,0.8c0.2,0.9,0.4,1.8,0.7,2.7c0.2,0.6,0.7,1,1.4,0.9c1.1-0.1,2.2-0.4,3.1-1.1
					c1-0.8,1.3-1.6,0.7-2.6c-0.8-1.5-1.8-2.9-2.9-4.2c-2.4-2.7-4.6-5.5-6.6-8.5c-0.2-0.3-0.4-0.6-0.6-0.9c-2.9-4.4-2.4-9.5,1.4-13.3
					C267.3,82.7,269,81.7,271.1,81.7z"/>
				<path d="M202.8,115.5c0.8-0.6,1.3-1.1,1.8-1.5c0.5-0.4,1-0.5,1.5-0.2c0.6,0.3,0.7,0.8,0.7,1.4c0,1.1-0.5,2.1-1.2,3
					c-2.6,3.2-7.6,2.4-9.1-1.4c-0.9-2.2-0.9-4.5-1.1-6.8c-0.2-4.6-0.3-9.2,0-13.8c0.1-1.3,0.2-2.6,0.5-3.8c0.4-1.5,1.4-2.4,2.8-2.3
					c1.3,0,2.4,0.8,2.7,2.3c0.3,1.7,0.5,3.5,0.6,5.3c0.2,5.2,0.4,10.5,0.5,15.7C202.5,114.1,202.6,114.7,202.8,115.5z"/>
				<path d="M196.7,83.4c-1.9,0-4.1-2.2-4.1-4.2c0-2.2,1.9-4.1,4.2-4.1c2.4,0,4.1,1.8,4.1,4.1C200.9,81.7,199.2,83.4,196.7,83.4z"/>
			</g>
		</g>
	</g>
</g>
</svg>
